<svg xmlns="http://www.w3.org/2000/svg" style="display: none;">
  <defs>
    <!-- Forums Icon -->
    <g id="forums-icon">
      <circle cx="12" cy="12" r="10" stroke="currentColor" stroke-width="1.5" fill="none"/>
      <path d="M8 8h8M8 12h8M8 16h5" stroke="currentColor" stroke-width="1.5" stroke-linecap="round"/>
      <circle cx="18" cy="6" r="2" fill="currentColor"/>
      <circle cx="6" cy="18" r="2" fill="currentColor"/>
    </g>
    
    <!-- Cloud Icon -->
    <g id="cloud-icon">
      <path d="M18 10h-1.26A8 8 0 1 0 9 20h9a5 5 0 0 0 0-10z" stroke="currentColor" stroke-width="1.5" fill="none"/>
      <path d="M12 14l-2 2 2 2M16 14l2 2-2 2" stroke="currentColor" stroke-width="1.5" stroke-linecap="round" stroke-linejoin="round"/>
      <circle cx="12" cy="8" r="1" fill="currentColor"/>
      <circle cx="8" cy="12" r="1" fill="currentColor"/>
      <circle cx="16" cy="12" r="1" fill="currentColor"/>
    </g>
    
    <!-- Bot Icon -->
    <g id="bot-icon">
      <rect x="6" y="4" width="12" height="14" rx="2" stroke="currentColor" stroke-width="1.5" fill="none"/>
      <circle cx="9" cy="9" r="1" fill="currentColor"/>
      <circle cx="15" cy="9" r="1" fill="currentColor"/>
      <path d="M9 13h6" stroke="currentColor" stroke-width="1.5" stroke-linecap="round"/>
      <path d="M12 2v2M8 2l1 1M16 2l-1 1" stroke="currentColor" stroke-width="1.5" stroke-linecap="round"/>
    </g>
    
    <!-- Discord Icon -->
    <g id="discord-icon">
      <path d="M8 12a1 1 0 1 0 2 0a1 1 0 0 0-2 0M14 12a1 1 0 1 0 2 0a1 1 0 0 0-2 0" fill="currentColor"/>
      <path d="M17.5 6A14.5 14.5 0 0 0 14 5l-.27.18c2.5.74 3.76 1.6 3.76 1.6A14.75 14.75 0 0 0 12 6a14.75 14.75 0 0 0-5.49.78s1.26-.86 3.76-1.6L10 5a14.5 14.5 0 0 0-3.5 1 16.21 16.21 0 0 0-2 8c1.73 2 4.5 2 4.5 2l.57-.68a7.14 7.14 0 0 1-2.57-1.9c2.8 1.44 6.2 1.44 9 0a7.14 7.14 0 0 1-2.57 1.9l.57.68s2.77 0 4.5-2a16.21 16.21 0 0 0-2-8z" stroke="currentColor" stroke-width="1.5" fill="none"/>
    </g>
    
    <!-- Backup Icon -->
    <g id="backup-icon">
      <path d="M12 2L2 7v10l10 5 10-5V7z" stroke="currentColor" stroke-width="1.5" fill="none"/>
      <path d="M12 22V12M2 7l10 5 10-5" stroke="currentColor" stroke-width="1.5" stroke-linecap="round" stroke-linejoin="round"/>
      <circle cx="12" cy="12" r="2" fill="currentColor" opacity="0.5"/>
    </g>
  </defs>
</svg>